# Tiled2Unity generated file. Do not modify by hand.
# Wavefront file for 'LevelPerhaps_mesh_0006.obj'

# Vertices (Count = 16)
v -1568 -864 0
v -1584 -864 0
v -1584 -848 0
v -1568 -848 0
v -1584 -864 0
v -1600 -864 0
v -1600 -848 0
v -1584 -848 0
v -1568 -880 0
v -1584 -880 0
v -1584 -864 0
v -1568 -864 0
v -1584 -880 0
v -1600 -880 0
v -1600 -864 0
v -1584 -864 0

# Texture cooridinates (Count = 4)
vt 0.140625 0.95
vt 0.15625 0.95
vt 0.15625 0.975
vt 0.140625 0.975

# Normal
vn 0 0 -1

# Mesh description
g LevelPerhaps_mesh_0006

# Faces
f 1/1/1 2/2/1 3/3/1 4/4/1
f 5/1/1 6/2/1 7/3/1 8/4/1
f 9/1/1 10/2/1 11/3/1 12/4/1
f 13/1/1 14/2/1 15/3/1 16/4/1

