# Tiled2Unity generated file. Do not modify by hand.
# Wavefront file for 'LevelPerhaps_mesh_0004.obj'

# Vertices (Count = 856)
v -1104 -848 0
v -1120 -848 0
v -1120 -832 0
v -1104 -832 0
v -1120 -848 0
v -1136 -848 0
v -1136 -832 0
v -1120 -832 0
v -1136 -848 0
v -1152 -848 0
v -1152 -832 0
v -1136 -832 0
v -1152 -848 0
v -1168 -848 0
v -1168 -832 0
v -1152 -832 0
v -1168 -848 0
v -1184 -848 0
v -1184 -832 0
v -1168 -832 0
v -1184 -848 0
v -1200 -848 0
v -1200 -832 0
v -1184 -832 0
v -1200 -848 0
v -1216 -848 0
v -1216 -832 0
v -1200 -832 0
v -1216 -848 0
v -1232 -848 0
v -1232 -832 0
v -1216 -832 0
v -1232 -848 0
v -1248 -848 0
v -1248 -832 0
v -1232 -832 0
v -1248 -848 0
v -1264 -848 0
v -1264 -832 0
v -1248 -832 0
v -1264 -848 0
v -1280 -848 0
v -1280 -832 0
v -1264 -832 0
v -1280 -848 0
v -1296 -848 0
v -1296 -832 0
v -1280 -832 0
v -1296 -848 0
v -1312 -848 0
v -1312 -832 0
v -1296 -832 0
v -1312 -848 0
v -1328 -848 0
v -1328 -832 0
v -1312 -832 0
v -1328 -848 0
v -1344 -848 0
v -1344 -832 0
v -1328 -832 0
v -1344 -848 0
v -1360 -848 0
v -1360 -832 0
v -1344 -832 0
v -1360 -848 0
v -1376 -848 0
v -1376 -832 0
v -1360 -832 0
v -1376 -848 0
v -1392 -848 0
v -1392 -832 0
v -1376 -832 0
v -1392 -848 0
v -1408 -848 0
v -1408 -832 0
v -1392 -832 0
v -1408 -848 0
v -1424 -848 0
v -1424 -832 0
v -1408 -832 0
v -1424 -848 0
v -1440 -848 0
v -1440 -832 0
v -1424 -832 0
v -1440 -848 0
v -1456 -848 0
v -1456 -832 0
v -1440 -832 0
v -1456 -848 0
v -1472 -848 0
v -1472 -832 0
v -1456 -832 0
v -1472 -848 0
v -1488 -848 0
v -1488 -832 0
v -1472 -832 0
v -1488 -848 0
v -1504 -848 0
v -1504 -832 0
v -1488 -832 0
v -1504 -848 0
v -1520 -848 0
v -1520 -832 0
v -1504 -832 0
v -1520 -848 0
v -1536 -848 0
v -1536 -832 0
v -1520 -832 0
v -1536 -848 0
v -1552 -848 0
v -1552 -832 0
v -1536 -832 0
v -1552 -848 0
v -1568 -848 0
v -1568 -832 0
v -1552 -832 0
v -1568 -848 0
v -1584 -848 0
v -1584 -832 0
v -1568 -832 0
v -1584 -848 0
v -1600 -848 0
v -1600 -832 0
v -1584 -832 0
v -1104 -864 0
v -1120 -864 0
v -1120 -848 0
v -1104 -848 0
v -1120 -864 0
v -1136 -864 0
v -1136 -848 0
v -1120 -848 0
v -1136 -864 0
v -1152 -864 0
v -1152 -848 0
v -1136 -848 0
v -1152 -864 0
v -1168 -864 0
v -1168 -848 0
v -1152 -848 0
v -1168 -864 0
v -1184 -864 0
v -1184 -848 0
v -1168 -848 0
v -1184 -864 0
v -1200 -864 0
v -1200 -848 0
v -1184 -848 0
v -1200 -864 0
v -1216 -864 0
v -1216 -848 0
v -1200 -848 0
v -1216 -864 0
v -1232 -864 0
v -1232 -848 0
v -1216 -848 0
v -1232 -864 0
v -1248 -864 0
v -1248 -848 0
v -1232 -848 0
v -1248 -864 0
v -1264 -864 0
v -1264 -848 0
v -1248 -848 0
v -1264 -864 0
v -1280 -864 0
v -1280 -848 0
v -1264 -848 0
v -1280 -864 0
v -1296 -864 0
v -1296 -848 0
v -1280 -848 0
v -1296 -864 0
v -1312 -864 0
v -1312 -848 0
v -1296 -848 0
v -1312 -864 0
v -1328 -864 0
v -1328 -848 0
v -1312 -848 0
v -1328 -864 0
v -1344 -864 0
v -1344 -848 0
v -1328 -848 0
v -1344 -864 0
v -1360 -864 0
v -1360 -848 0
v -1344 -848 0
v -1360 -864 0
v -1376 -864 0
v -1376 -848 0
v -1360 -848 0
v -1376 -864 0
v -1392 -864 0
v -1392 -848 0
v -1376 -848 0
v -1392 -864 0
v -1408 -864 0
v -1408 -848 0
v -1392 -848 0
v -1408 -864 0
v -1424 -864 0
v -1424 -848 0
v -1408 -848 0
v -1424 -864 0
v -1440 -864 0
v -1440 -848 0
v -1424 -848 0
v -1440 -864 0
v -1456 -864 0
v -1456 -848 0
v -1440 -848 0
v -1456 -864 0
v -1472 -864 0
v -1472 -848 0
v -1456 -848 0
v -1472 -864 0
v -1488 -864 0
v -1488 -848 0
v -1472 -848 0
v -1488 -864 0
v -1504 -864 0
v -1504 -848 0
v -1488 -848 0
v -1504 -864 0
v -1520 -864 0
v -1520 -848 0
v -1504 -848 0
v -1520 -864 0
v -1536 -864 0
v -1536 -848 0
v -1520 -848 0
v -1536 -864 0
v -1552 -864 0
v -1552 -848 0
v -1536 -848 0
v -1552 -864 0
v -1568 -864 0
v -1568 -848 0
v -1552 -848 0
v -1568 -896 0
v -1584 -896 0
v -1584 -880 0
v -1568 -880 0
v -1584 -896 0
v -1600 -896 0
v -1600 -880 0
v -1584 -880 0
v -1568 -912 0
v -1584 -912 0
v -1584 -896 0
v -1568 -896 0
v -1584 -912 0
v -1600 -912 0
v -1600 -896 0
v -1584 -896 0
v -1568 -928 0
v -1584 -928 0
v -1584 -912 0
v -1568 -912 0
v -1584 -928 0
v -1600 -928 0
v -1600 -912 0
v -1584 -912 0
v -1568 -944 0
v -1584 -944 0
v -1584 -928 0
v -1568 -928 0
v -1584 -944 0
v -1600 -944 0
v -1600 -928 0
v -1584 -928 0
v -1568 -960 0
v -1584 -960 0
v -1584 -944 0
v -1568 -944 0
v -1584 -960 0
v -1600 -960 0
v -1600 -944 0
v -1584 -944 0
v -1568 -976 0
v -1584 -976 0
v -1584 -960 0
v -1568 -960 0
v -1584 -976 0
v -1600 -976 0
v -1600 -960 0
v -1584 -960 0
v -1568 -992 0
v -1584 -992 0
v -1584 -976 0
v -1568 -976 0
v -1584 -992 0
v -1600 -992 0
v -1600 -976 0
v -1584 -976 0
v -1568 -1008 0
v -1584 -1008 0
v -1584 -992 0
v -1568 -992 0
v -1584 -1008 0
v -1600 -1008 0
v -1600 -992 0
v -1584 -992 0
v -1568 -1024 0
v -1584 -1024 0
v -1584 -1008 0
v -1568 -1008 0
v -1584 -1024 0
v -1600 -1024 0
v -1600 -1008 0
v -1584 -1008 0
v -1568 -1040 0
v -1584 -1040 0
v -1584 -1024 0
v -1568 -1024 0
v -1584 -1040 0
v -1600 -1040 0
v -1600 -1024 0
v -1584 -1024 0
v -1568 -1056 0
v -1584 -1056 0
v -1584 -1040 0
v -1568 -1040 0
v -1584 -1056 0
v -1600 -1056 0
v -1600 -1040 0
v -1584 -1040 0
v -1568 -1072 0
v -1584 -1072 0
v -1584 -1056 0
v -1568 -1056 0
v -1584 -1072 0
v -1600 -1072 0
v -1600 -1056 0
v -1584 -1056 0
v -1568 -1088 0
v -1584 -1088 0
v -1584 -1072 0
v -1568 -1072 0
v -1584 -1088 0
v -1600 -1088 0
v -1600 -1072 0
v -1584 -1072 0
v -1568 -1104 0
v -1584 -1104 0
v -1584 -1088 0
v -1568 -1088 0
v -1584 -1104 0
v -1600 -1104 0
v -1600 -1088 0
v -1584 -1088 0
v -1568 -1120 0
v -1584 -1120 0
v -1584 -1104 0
v -1568 -1104 0
v -1584 -1120 0
v -1600 -1120 0
v -1600 -1104 0
v -1584 -1104 0
v -1568 -1136 0
v -1584 -1136 0
v -1584 -1120 0
v -1568 -1120 0
v -1584 -1136 0
v -1600 -1136 0
v -1600 -1120 0
v -1584 -1120 0
v -1568 -1152 0
v -1584 -1152 0
v -1584 -1136 0
v -1568 -1136 0
v -1584 -1152 0
v -1600 -1152 0
v -1600 -1136 0
v -1584 -1136 0
v -1568 -1168 0
v -1584 -1168 0
v -1584 -1152 0
v -1568 -1152 0
v -1584 -1168 0
v -1600 -1168 0
v -1600 -1152 0
v -1584 -1152 0
v -1344 -1184 0
v -1360 -1184 0
v -1360 -1168 0
v -1344 -1168 0
v -1360 -1184 0
v -1376 -1184 0
v -1376 -1168 0
v -1360 -1168 0
v -1376 -1184 0
v -1392 -1184 0
v -1392 -1168 0
v -1376 -1168 0
v -1392 -1184 0
v -1408 -1184 0
v -1408 -1168 0
v -1392 -1168 0
v -1408 -1184 0
v -1424 -1184 0
v -1424 -1168 0
v -1408 -1168 0
v -1424 -1184 0
v -1440 -1184 0
v -1440 -1168 0
v -1424 -1168 0
v -1440 -1184 0
v -1456 -1184 0
v -1456 -1168 0
v -1440 -1168 0
v -1456 -1184 0
v -1472 -1184 0
v -1472 -1168 0
v -1456 -1168 0
v -1568 -1184 0
v -1584 -1184 0
v -1584 -1168 0
v -1568 -1168 0
v -1584 -1184 0
v -1600 -1184 0
v -1600 -1168 0
v -1584 -1168 0
v -1344 -1200 0
v -1360 -1200 0
v -1360 -1184 0
v -1344 -1184 0
v -1360 -1200 0
v -1376 -1200 0
v -1376 -1184 0
v -1360 -1184 0
v -1376 -1200 0
v -1392 -1200 0
v -1392 -1184 0
v -1376 -1184 0
v -1392 -1200 0
v -1408 -1200 0
v -1408 -1184 0
v -1392 -1184 0
v -1408 -1200 0
v -1424 -1200 0
v -1424 -1184 0
v -1408 -1184 0
v -1424 -1200 0
v -1440 -1200 0
v -1440 -1184 0
v -1424 -1184 0
v -1456 -1200 0
v -1472 -1200 0
v -1472 -1184 0
v -1456 -1184 0
v -1568 -1200 0
v -1584 -1200 0
v -1584 -1184 0
v -1568 -1184 0
v -1584 -1200 0
v -1600 -1200 0
v -1600 -1184 0
v -1584 -1184 0
v -1296 -1216 0
v -1312 -1216 0
v -1312 -1200 0
v -1296 -1200 0
v -1312 -1216 0
v -1328 -1216 0
v -1328 -1200 0
v -1312 -1200 0
v -1328 -1216 0
v -1344 -1216 0
v -1344 -1200 0
v -1328 -1200 0
v -1344 -1216 0
v -1360 -1216 0
v -1360 -1200 0
v -1344 -1200 0
v -1360 -1216 0
v -1376 -1216 0
v -1376 -1200 0
v -1360 -1200 0
v -1376 -1216 0
v -1392 -1216 0
v -1392 -1200 0
v -1376 -1200 0
v -1392 -1216 0
v -1408 -1216 0
v -1408 -1200 0
v -1392 -1200 0
v -1408 -1216 0
v -1424 -1216 0
v -1424 -1200 0
v -1408 -1200 0
v -1424 -1216 0
v -1440 -1216 0
v -1440 -1200 0
v -1424 -1200 0
v -1440 -1216 0
v -1456 -1216 0
v -1456 -1200 0
v -1440 -1200 0
v -1456 -1216 0
v -1472 -1216 0
v -1472 -1200 0
v -1456 -1200 0
v -1568 -1216 0
v -1584 -1216 0
v -1584 -1200 0
v -1568 -1200 0
v -1584 -1216 0
v -1600 -1216 0
v -1600 -1200 0
v -1584 -1200 0
v -1296 -1232 0
v -1312 -1232 0
v -1312 -1216 0
v -1296 -1216 0
v -1312 -1232 0
v -1328 -1232 0
v -1328 -1216 0
v -1312 -1216 0
v -1328 -1232 0
v -1344 -1232 0
v -1344 -1216 0
v -1328 -1216 0
v -1344 -1232 0
v -1360 -1232 0
v -1360 -1216 0
v -1344 -1216 0
v -1360 -1232 0
v -1376 -1232 0
v -1376 -1216 0
v -1360 -1216 0
v -1376 -1232 0
v -1392 -1232 0
v -1392 -1216 0
v -1376 -1216 0
v -1408 -1232 0
v -1424 -1232 0
v -1424 -1216 0
v -1408 -1216 0
v -1424 -1232 0
v -1440 -1232 0
v -1440 -1216 0
v -1424 -1216 0
v -1440 -1232 0
v -1456 -1232 0
v -1456 -1216 0
v -1440 -1216 0
v -1456 -1232 0
v -1472 -1232 0
v -1472 -1216 0
v -1456 -1216 0
v -1568 -1232 0
v -1584 -1232 0
v -1584 -1216 0
v -1568 -1216 0
v -1584 -1232 0
v -1600 -1232 0
v -1600 -1216 0
v -1584 -1216 0
v -1232 -1248 0
v -1248 -1248 0
v -1248 -1232 0
v -1232 -1232 0
v -1248 -1248 0
v -1264 -1248 0
v -1264 -1232 0
v -1248 -1232 0
v -1264 -1248 0
v -1280 -1248 0
v -1280 -1232 0
v -1264 -1232 0
v -1280 -1248 0
v -1296 -1248 0
v -1296 -1232 0
v -1280 -1232 0
v -1296 -1248 0
v -1312 -1248 0
v -1312 -1232 0
v -1296 -1232 0
v -1312 -1248 0
v -1328 -1248 0
v -1328 -1232 0
v -1312 -1232 0
v -1328 -1248 0
v -1344 -1248 0
v -1344 -1232 0
v -1328 -1232 0
v -1344 -1248 0
v -1360 -1248 0
v -1360 -1232 0
v -1344 -1232 0
v -1360 -1248 0
v -1376 -1248 0
v -1376 -1232 0
v -1360 -1232 0
v -1376 -1248 0
v -1392 -1248 0
v -1392 -1232 0
v -1376 -1232 0
v -1392 -1248 0
v -1408 -1248 0
v -1408 -1232 0
v -1392 -1232 0
v -1408 -1248 0
v -1424 -1248 0
v -1424 -1232 0
v -1408 -1232 0
v -1568 -1248 0
v -1584 -1248 0
v -1584 -1232 0
v -1568 -1232 0
v -1584 -1248 0
v -1600 -1248 0
v -1600 -1232 0
v -1584 -1232 0
v -1232 -1264 0
v -1248 -1264 0
v -1248 -1248 0
v -1232 -1248 0
v -1344 -1264 0
v -1360 -1264 0
v -1360 -1248 0
v -1344 -1248 0
v -1360 -1264 0
v -1376 -1264 0
v -1376 -1248 0
v -1360 -1248 0
v -1376 -1264 0
v -1392 -1264 0
v -1392 -1248 0
v -1376 -1248 0
v -1392 -1264 0
v -1408 -1264 0
v -1408 -1248 0
v -1392 -1248 0
v -1408 -1264 0
v -1424 -1264 0
v -1424 -1248 0
v -1408 -1248 0
v -1568 -1264 0
v -1584 -1264 0
v -1584 -1248 0
v -1568 -1248 0
v -1584 -1264 0
v -1600 -1264 0
v -1600 -1248 0
v -1584 -1248 0
v -1232 -1280 0
v -1248 -1280 0
v -1248 -1264 0
v -1232 -1264 0
v -1344 -1280 0
v -1360 -1280 0
v -1360 -1264 0
v -1344 -1264 0
v -1568 -1280 0
v -1584 -1280 0
v -1584 -1264 0
v -1568 -1264 0
v -1584 -1280 0
v -1600 -1280 0
v -1600 -1264 0
v -1584 -1264 0
v -1232 -1296 0
v -1248 -1296 0
v -1248 -1280 0
v -1232 -1280 0
v -1248 -1296 0
v -1264 -1296 0
v -1264 -1280 0
v -1248 -1280 0
v -1264 -1296 0
v -1280 -1296 0
v -1280 -1280 0
v -1264 -1280 0
v -1280 -1296 0
v -1296 -1296 0
v -1296 -1280 0
v -1280 -1280 0
v -1296 -1296 0
v -1312 -1296 0
v -1312 -1280 0
v -1296 -1280 0
v -1312 -1296 0
v -1328 -1296 0
v -1328 -1280 0
v -1312 -1280 0
v -1328 -1296 0
v -1344 -1296 0
v -1344 -1280 0
v -1328 -1280 0
v -1344 -1296 0
v -1360 -1296 0
v -1360 -1280 0
v -1344 -1280 0
v -1568 -1296 0
v -1584 -1296 0
v -1584 -1280 0
v -1568 -1280 0
v -1584 -1296 0
v -1600 -1296 0
v -1600 -1280 0
v -1584 -1280 0
v -1568 -1312 0
v -1584 -1312 0
v -1584 -1296 0
v -1568 -1296 0
v -1584 -1312 0
v -1600 -1312 0
v -1600 -1296 0
v -1584 -1296 0
v -1568 -1328 0
v -1584 -1328 0
v -1584 -1312 0
v -1568 -1312 0
v -1584 -1328 0
v -1600 -1328 0
v -1600 -1312 0
v -1584 -1312 0
v -1568 -1344 0
v -1584 -1344 0
v -1584 -1328 0
v -1568 -1328 0
v -1584 -1344 0
v -1600 -1344 0
v -1600 -1328 0
v -1584 -1328 0
v -1568 -1360 0
v -1584 -1360 0
v -1584 -1344 0
v -1568 -1344 0
v -1584 -1360 0
v -1600 -1360 0
v -1600 -1344 0
v -1584 -1344 0
v -1568 -1376 0
v -1584 -1376 0
v -1584 -1360 0
v -1568 -1360 0
v -1584 -1376 0
v -1600 -1376 0
v -1600 -1360 0
v -1584 -1360 0
v -1568 -1392 0
v -1584 -1392 0
v -1584 -1376 0
v -1568 -1376 0
v -1584 -1392 0
v -1600 -1392 0
v -1600 -1376 0
v -1584 -1376 0
v -1568 -1408 0
v -1584 -1408 0
v -1584 -1392 0
v -1568 -1392 0
v -1584 -1408 0
v -1600 -1408 0
v -1600 -1392 0
v -1584 -1392 0
v -1568 -1424 0
v -1584 -1424 0
v -1584 -1408 0
v -1568 -1408 0
v -1584 -1424 0
v -1600 -1424 0
v -1600 -1408 0
v -1584 -1408 0
v -1568 -1440 0
v -1584 -1440 0
v -1584 -1424 0
v -1568 -1424 0
v -1584 -1440 0
v -1600 -1440 0
v -1600 -1424 0
v -1584 -1424 0
v -1568 -1456 0
v -1584 -1456 0
v -1584 -1440 0
v -1568 -1440 0
v -1584 -1456 0
v -1600 -1456 0
v -1600 -1440 0
v -1584 -1440 0
v -1568 -1472 0
v -1584 -1472 0
v -1584 -1456 0
v -1568 -1456 0
v -1584 -1472 0
v -1600 -1472 0
v -1600 -1456 0
v -1584 -1456 0
v -1568 -1488 0
v -1584 -1488 0
v -1584 -1472 0
v -1568 -1472 0
v -1584 -1488 0
v -1600 -1488 0
v -1600 -1472 0
v -1584 -1472 0
v -1568 -1504 0
v -1584 -1504 0
v -1584 -1488 0
v -1568 -1488 0
v -1584 -1504 0
v -1600 -1504 0
v -1600 -1488 0
v -1584 -1488 0
v -1568 -1520 0
v -1584 -1520 0
v -1584 -1504 0
v -1568 -1504 0
v -1584 -1520 0
v -1600 -1520 0
v -1600 -1504 0
v -1584 -1504 0
v -1568 -1536 0
v -1584 -1536 0
v -1584 -1520 0
v -1568 -1520 0
v -1584 -1536 0
v -1600 -1536 0
v -1600 -1520 0
v -1584 -1520 0
v -1568 -1552 0
v -1584 -1552 0
v -1584 -1536 0
v -1568 -1536 0
v -1584 -1552 0
v -1600 -1552 0
v -1600 -1536 0
v -1584 -1536 0
v -1568 -1568 0
v -1584 -1568 0
v -1584 -1552 0
v -1568 -1552 0
v -1584 -1568 0
v -1600 -1568 0
v -1600 -1552 0
v -1584 -1552 0
v -1568 -1584 0
v -1584 -1584 0
v -1584 -1568 0
v -1568 -1568 0
v -1584 -1584 0
v -1600 -1584 0
v -1600 -1568 0
v -1584 -1568 0
v -1568 -1600 0
v -1584 -1600 0
v -1584 -1584 0
v -1568 -1584 0
v -1584 -1600 0
v -1600 -1600 0
v -1600 -1584 0
v -1584 -1584 0

# Texture cooridinates (Count = 38)
vt 0.109375 0.975
vt 0.125 0.975
vt 0.125 1
vt 0.109375 1
vt 0.140625 0.975
vt 0.140625 1
vt 0.15625 0.975
vt 0.15625 1
vt 0.109375 0.925
vt 0.125 0.925
vt 0.125 0.95
vt 0.109375 0.95
vt 0.140625 0.925
vt 0.140625 0.95
vt 0.15625 0.95
vt 0.359375 0.95
vt 0.34375 0.95
vt 0.34375 0.925
vt 0.359375 0.925
vt 0.328125 0.95
vt 0.328125 0.925
vt 0.3125 0.95
vt 0.3125 0.925
vt 0.296875 0.95
vt 0.296875 0.925
vt 0.28125 0.95
vt 0.28125 0.925
vt 0.15625 0.925
vt 0.34375 0.975
vt 0.328125 0.975
vt 0.3125 0.975
vt 0.296875 0.975
vt 0.28125 0.975
vt 0.65625 0.45
vt 0.671875 0.45
vt 0.671875 0.475
vt 0.65625 0.475
vt 0.359375 0.975

# Normal
vn 0 0 -1

# Mesh description
g LevelPerhaps_mesh_0004

# Faces
f 1/1/1 2/2/1 3/3/1 4/4/1
f 5/2/1 6/5/1 7/6/1 8/3/1
f 9/2/1 10/5/1 11/6/1 12/3/1
f 13/2/1 14/5/1 15/6/1 16/3/1
f 17/2/1 18/5/1 19/6/1 20/3/1
f 21/2/1 22/5/1 23/6/1 24/3/1
f 25/2/1 26/5/1 27/6/1 28/3/1
f 29/2/1 30/5/1 31/6/1 32/3/1
f 33/2/1 34/5/1 35/6/1 36/3/1
f 37/2/1 38/5/1 39/6/1 40/3/1
f 41/2/1 42/5/1 43/6/1 44/3/1
f 45/2/1 46/5/1 47/6/1 48/3/1
f 49/2/1 50/5/1 51/6/1 52/3/1
f 53/2/1 54/5/1 55/6/1 56/3/1
f 57/2/1 58/5/1 59/6/1 60/3/1
f 61/2/1 62/5/1 63/6/1 64/3/1
f 65/2/1 66/5/1 67/6/1 68/3/1
f 69/2/1 70/5/1 71/6/1 72/3/1
f 73/2/1 74/5/1 75/6/1 76/3/1
f 77/2/1 78/5/1 79/6/1 80/3/1
f 81/2/1 82/5/1 83/6/1 84/3/1
f 85/2/1 86/5/1 87/6/1 88/3/1
f 89/2/1 90/5/1 91/6/1 92/3/1
f 93/2/1 94/5/1 95/6/1 96/3/1
f 97/2/1 98/5/1 99/6/1 100/3/1
f 101/2/1 102/5/1 103/6/1 104/3/1
f 105/2/1 106/5/1 107/6/1 108/3/1
f 109/2/1 110/5/1 111/6/1 112/3/1
f 113/2/1 114/5/1 115/6/1 116/3/1
f 117/2/1 118/5/1 119/6/1 120/3/1
f 121/5/1 122/7/1 123/8/1 124/6/1
f 125/9/1 126/10/1 127/11/1 128/12/1
f 129/10/1 130/13/1 131/14/1 132/11/1
f 133/10/1 134/13/1 135/14/1 136/11/1
f 137/10/1 138/13/1 139/14/1 140/11/1
f 141/10/1 142/13/1 143/14/1 144/11/1
f 145/10/1 146/13/1 147/14/1 148/11/1
f 149/10/1 150/13/1 151/14/1 152/11/1
f 153/10/1 154/13/1 155/14/1 156/11/1
f 157/10/1 158/13/1 159/14/1 160/11/1
f 161/10/1 162/13/1 163/14/1 164/11/1
f 165/10/1 166/13/1 167/14/1 168/11/1
f 169/10/1 170/13/1 171/14/1 172/11/1
f 173/10/1 174/13/1 175/14/1 176/11/1
f 177/10/1 178/13/1 179/14/1 180/11/1
f 181/10/1 182/13/1 183/14/1 184/11/1
f 185/10/1 186/13/1 187/14/1 188/11/1
f 189/10/1 190/13/1 191/14/1 192/11/1
f 193/10/1 194/13/1 195/14/1 196/11/1
f 197/10/1 198/13/1 199/14/1 200/11/1
f 201/10/1 202/13/1 203/14/1 204/11/1
f 205/10/1 206/13/1 207/14/1 208/11/1
f 209/10/1 210/13/1 211/14/1 212/11/1
f 213/10/1 214/13/1 215/14/1 216/11/1
f 217/10/1 218/13/1 219/14/1 220/11/1
f 221/10/1 222/13/1 223/14/1 224/11/1
f 225/10/1 226/13/1 227/14/1 228/11/1
f 229/10/1 230/13/1 231/14/1 232/11/1
f 233/10/1 234/13/1 235/14/1 236/11/1
f 237/10/1 238/13/1 239/14/1 240/11/1
f 241/14/1 242/15/1 243/7/1 244/5/1
f 245/14/1 246/15/1 247/7/1 248/5/1
f 249/14/1 250/15/1 251/7/1 252/5/1
f 253/14/1 254/15/1 255/7/1 256/5/1
f 257/14/1 258/15/1 259/7/1 260/5/1
f 261/14/1 262/15/1 263/7/1 264/5/1
f 265/14/1 266/15/1 267/7/1 268/5/1
f 269/14/1 270/15/1 271/7/1 272/5/1
f 273/14/1 274/15/1 275/7/1 276/5/1
f 277/14/1 278/15/1 279/7/1 280/5/1
f 281/14/1 282/15/1 283/7/1 284/5/1
f 285/14/1 286/15/1 287/7/1 288/5/1
f 289/14/1 290/15/1 291/7/1 292/5/1
f 293/14/1 294/15/1 295/7/1 296/5/1
f 297/14/1 298/15/1 299/7/1 300/5/1
f 301/14/1 302/15/1 303/7/1 304/5/1
f 305/14/1 306/15/1 307/7/1 308/5/1
f 309/14/1 310/15/1 311/7/1 312/5/1
f 313/14/1 314/15/1 315/7/1 316/5/1
f 317/14/1 318/15/1 319/7/1 320/5/1
f 321/14/1 322/15/1 323/7/1 324/5/1
f 325/14/1 326/15/1 327/7/1 328/5/1
f 329/14/1 330/15/1 331/7/1 332/5/1
f 333/14/1 334/15/1 335/7/1 336/5/1
f 337/14/1 338/15/1 339/7/1 340/5/1
f 341/14/1 342/15/1 343/7/1 344/5/1
f 345/14/1 346/15/1 347/7/1 348/5/1
f 349/14/1 350/15/1 351/7/1 352/5/1
f 353/14/1 354/15/1 355/7/1 356/5/1
f 357/14/1 358/15/1 359/7/1 360/5/1
f 361/14/1 362/15/1 363/7/1 364/5/1
f 365/14/1 366/15/1 367/7/1 368/5/1
f 369/14/1 370/15/1 371/7/1 372/5/1
f 373/14/1 374/15/1 375/7/1 376/5/1
f 377/14/1 378/15/1 379/7/1 380/5/1
f 381/14/1 382/15/1 383/7/1 384/5/1
f 385/1/1 386/2/1 387/3/1 388/4/1
f 389/2/1 390/5/1 391/6/1 392/3/1
f 393/2/1 394/5/1 395/6/1 396/3/1
f 397/2/1 398/5/1 399/6/1 400/3/1
f 401/2/1 402/5/1 403/6/1 404/3/1
f 405/2/1 406/5/1 407/6/1 408/3/1
f 409/2/1 410/5/1 411/6/1 412/3/1
f 413/5/1 414/7/1 415/8/1 416/6/1
f 417/14/1 418/15/1 419/7/1 420/5/1
f 421/14/1 422/15/1 423/7/1 424/5/1
f 425/12/1 426/11/1 427/2/1 428/1/1
f 429/16/1 430/17/1 431/18/1 432/19/1
f 433/17/1 434/20/1 435/21/1 436/18/1
f 437/20/1 438/22/1 439/23/1 440/21/1
f 441/22/1 442/24/1 443/25/1 444/23/1
f 445/24/1 446/26/1 447/27/1 448/25/1
f 449/14/1 450/15/1 451/7/1 452/5/1
f 453/14/1 454/15/1 455/7/1 456/5/1
f 457/14/1 458/15/1 459/7/1 460/5/1
f 461/1/1 462/2/1 463/3/1 464/4/1
f 465/2/1 466/5/1 467/6/1 468/3/1
f 469/2/1 470/5/1 471/6/1 472/3/1
f 473/13/1 474/28/1 475/15/1 476/14/1
f 477/27/1 478/25/1 479/24/1 480/26/1
f 481/29/1 482/30/1 483/20/1 484/17/1
f 485/30/1 486/31/1 487/22/1 488/20/1
f 489/31/1 490/32/1 491/24/1 492/22/1
f 493/32/1 494/33/1 495/26/1 496/24/1
f 497/34/1 498/35/1 499/36/1 500/37/1
f 501/14/1 502/15/1 503/7/1 504/5/1
f 505/14/1 506/15/1 507/7/1 508/5/1
f 509/14/1 510/15/1 511/7/1 512/5/1
f 513/12/1 514/11/1 515/2/1 516/1/1
f 517/16/1 518/17/1 519/18/1 520/19/1
f 521/17/1 522/20/1 523/21/1 524/18/1
f 525/20/1 526/22/1 527/23/1 528/21/1
f 529/22/1 530/24/1 531/25/1 532/23/1
f 533/30/1 534/20/1 535/22/1 536/31/1
f 537/14/1 538/15/1 539/7/1 540/5/1
f 541/10/1 542/13/1 543/14/1 544/11/1
f 545/10/1 546/13/1 547/14/1 548/11/1
f 549/13/1 550/28/1 551/15/1 552/14/1
f 553/14/1 554/15/1 555/7/1 556/5/1
f 557/14/1 558/15/1 559/7/1 560/5/1
f 561/1/1 562/2/1 563/3/1 564/4/1
f 565/2/1 566/5/1 567/6/1 568/3/1
f 569/2/1 570/5/1 571/6/1 572/3/1
f 573/2/1 574/5/1 575/6/1 576/3/1
f 577/13/1 578/28/1 579/15/1 580/14/1
f 581/38/1 582/29/1 583/17/1 584/16/1
f 585/29/1 586/30/1 587/20/1 588/17/1
f 589/30/1 590/31/1 591/22/1 592/20/1
f 593/30/1 594/31/1 595/22/1 596/20/1
f 597/20/1 598/17/1 599/29/1 600/30/1
f 601/34/1 602/35/1 603/36/1 604/37/1
f 605/14/1 606/15/1 607/7/1 608/5/1
f 609/14/1 610/15/1 611/7/1 612/5/1
f 613/14/1 614/15/1 615/7/1 616/5/1
f 617/12/1 618/11/1 619/2/1 620/1/1
f 621/14/1 622/15/1 623/7/1 624/5/1
f 625/10/1 626/13/1 627/14/1 628/11/1
f 629/10/1 630/13/1 631/14/1 632/11/1
f 633/10/1 634/13/1 635/14/1 636/11/1
f 637/13/1 638/28/1 639/15/1 640/14/1
f 641/14/1 642/15/1 643/7/1 644/5/1
f 645/14/1 646/15/1 647/7/1 648/5/1
f 649/12/1 650/11/1 651/2/1 652/1/1
f 653/14/1 654/15/1 655/7/1 656/5/1
f 657/14/1 658/15/1 659/7/1 660/5/1
f 661/14/1 662/15/1 663/7/1 664/5/1
f 665/9/1 666/10/1 667/11/1 668/12/1
f 669/10/1 670/13/1 671/14/1 672/11/1
f 673/10/1 674/13/1 675/14/1 676/11/1
f 677/10/1 678/13/1 679/14/1 680/11/1
f 681/10/1 682/13/1 683/14/1 684/11/1
f 685/10/1 686/13/1 687/14/1 688/11/1
f 689/10/1 690/13/1 691/14/1 692/11/1
f 693/13/1 694/28/1 695/15/1 696/14/1
f 697/14/1 698/15/1 699/7/1 700/5/1
f 701/14/1 702/15/1 703/7/1 704/5/1
f 705/14/1 706/15/1 707/7/1 708/5/1
f 709/14/1 710/15/1 711/7/1 712/5/1
f 713/14/1 714/15/1 715/7/1 716/5/1
f 717/14/1 718/15/1 719/7/1 720/5/1
f 721/14/1 722/15/1 723/7/1 724/5/1
f 725/14/1 726/15/1 727/7/1 728/5/1
f 729/14/1 730/15/1 731/7/1 732/5/1
f 733/14/1 734/15/1 735/7/1 736/5/1
f 737/14/1 738/15/1 739/7/1 740/5/1
f 741/14/1 742/15/1 743/7/1 744/5/1
f 745/14/1 746/15/1 747/7/1 748/5/1
f 749/14/1 750/15/1 751/7/1 752/5/1
f 753/14/1 754/15/1 755/7/1 756/5/1
f 757/14/1 758/15/1 759/7/1 760/5/1
f 761/14/1 762/15/1 763/7/1 764/5/1
f 765/14/1 766/15/1 767/7/1 768/5/1
f 769/14/1 770/15/1 771/7/1 772/5/1
f 773/14/1 774/15/1 775/7/1 776/5/1
f 777/14/1 778/15/1 779/7/1 780/5/1
f 781/14/1 782/15/1 783/7/1 784/5/1
f 785/14/1 786/15/1 787/7/1 788/5/1
f 789/14/1 790/15/1 791/7/1 792/5/1
f 793/14/1 794/15/1 795/7/1 796/5/1
f 797/14/1 798/15/1 799/7/1 800/5/1
f 801/14/1 802/15/1 803/7/1 804/5/1
f 805/14/1 806/15/1 807/7/1 808/5/1
f 809/14/1 810/15/1 811/7/1 812/5/1
f 813/14/1 814/15/1 815/7/1 816/5/1
f 817/14/1 818/15/1 819/7/1 820/5/1
f 821/14/1 822/15/1 823/7/1 824/5/1
f 825/14/1 826/15/1 827/7/1 828/5/1
f 829/14/1 830/15/1 831/7/1 832/5/1
f 833/14/1 834/15/1 835/7/1 836/5/1
f 837/14/1 838/15/1 839/7/1 840/5/1
f 841/14/1 842/15/1 843/7/1 844/5/1
f 845/14/1 846/15/1 847/7/1 848/5/1
f 849/14/1 850/15/1 851/7/1 852/5/1
f 853/14/1 854/15/1 855/7/1 856/5/1

