# Tiled2Unity generated file. Do not modify by hand.
# Wavefront file for 'LevelPerhaps_mesh_0006.obj'

# Vertices (Count = 16)
v -98 -54 0
v -99 -54 0
v -99 -53 0
v -98 -53 0
v -99 -54 0
v -100 -54 0
v -100 -53 0
v -99 -53 0
v -98 -55 0
v -99 -55 0
v -99 -54 0
v -98 -54 0
v -99 -55 0
v -100 -55 0
v -100 -54 0
v -99 -54 0

# Texture cooridinates (Count = 4)
vt 0.140625 0.95
vt 0.15625 0.95
vt 0.15625 0.975
vt 0.140625 0.975

# Normal
vn 0 0 -1

# Mesh description
g LevelPerhaps_mesh_0006

# Faces
f 1/1/1 2/2/1 3/3/1 4/4/1
f 5/1/1 6/2/1 7/3/1 8/4/1
f 9/1/1 10/2/1 11/3/1 12/4/1
f 13/1/1 14/2/1 15/3/1 16/4/1

